# xmcd
#
# Track frame offsets: 
#        182
#        15370
#        32050
#        51625
#        68025
#        87157
#        105397
#        131250
#        146562
#        166137
#        185257
#        200347
#        219160
#
# Disc length: 3185 seconds
#
# Revision: 4
# Processed by: cddbd v1.5.2PL0 Copyright (c) Steve Scherf et al.
# Submitted via: ExactAudioCopy v0.99pb4
#
DISCID=a50c6f0d
DTITLE=Randy Crawford - Permanent
DYEAR=2002
DGENRE=R&B
TTITLE0=Wild Is The Wind
TTITLE1=Merry Go Round
TTITLE2=Free The Child
TTITLE3=Permanent
TTITLE4=Sweetest Thing
TTITLE5=Fire And Rain
TTITLE6=When I Get Over You
TTITLE7=Alfie
TTITLE8=When The Evening Comes
TTITLE9=All I Do
TTITLE10=When Will I Be Free Of Love's Taboo
TTITLE11=Tell It To Your Heart
TTITLE12=I Get A Little Burned
EXTD=YEAR: 2002  ID3G:   0
EXTT0=
EXTT1=
EXTT2=
EXTT3=
EXTT4=
EXTT5=
EXTT6=
EXTT7=
EXTT8=
EXTT9=
EXTT10=
EXTT11=
EXTT12=
PLAYORDER=
